<svg width="233" height="73" viewBox="0 0 233 73" fill="none" xmlns="http://www.w3.org/2000/svg">
<rect y="3" width="70" height="70" fill="#262525"/>
<path d="M103.03 4.77517V16.6752H100.31V7.39317H96.74V16.6752H94.02V4.77517H103.03ZM108.087 14.0572H112.847V16.6752H105.367V4.77517H112.762V7.39317H108.087V9.36517H112.337V11.9492H108.087V14.0572ZM119.178 4.77517C120.345 4.77517 121.331 5.17184 122.136 5.96517C122.94 6.7585 123.343 7.72184 123.343 8.85517C123.343 9.9885 122.94 10.9518 122.136 11.7452C121.331 12.5385 120.345 12.9352 119.178 12.9352H117.393V16.6752H114.673V4.77517H119.178ZM119.178 10.3852C119.597 10.3852 119.943 10.2378 120.215 9.94317C120.487 9.6485 120.623 9.28584 120.623 8.85517C120.623 8.4245 120.487 8.06184 120.215 7.76717C119.943 7.4725 119.597 7.32517 119.178 7.32517H117.393V10.3852H119.178ZM132.369 10.5042C133.343 11.1275 133.831 12.0228 133.831 13.1902C133.831 14.2215 133.462 15.0602 132.726 15.7062C131.989 16.3522 131.077 16.6752 129.989 16.6752H124.991V4.77517H129.649C130.714 4.77517 131.604 5.0925 132.318 5.72717C133.043 6.3505 133.406 7.1665 133.406 8.17517C133.406 9.12717 133.06 9.9035 132.369 10.5042ZM129.649 7.32517H127.711V9.43317H129.649C129.955 9.43317 130.204 9.33684 130.397 9.14417C130.589 8.94017 130.686 8.68517 130.686 8.37917C130.686 8.07317 130.589 7.82384 130.397 7.63117C130.204 7.42717 129.955 7.32517 129.649 7.32517ZM129.989 14.1252C130.329 14.1252 130.601 14.0232 130.805 13.8192C131.009 13.6038 131.111 13.3262 131.111 12.9862C131.111 12.6462 131.009 12.3742 130.805 12.1702C130.601 11.9548 130.329 11.8472 129.989 11.8472H127.711V14.1252H129.989ZM145.539 15.1282C144.337 16.3182 142.875 16.9132 141.153 16.9132C139.43 16.9132 137.968 16.3182 136.767 15.1282C135.565 13.9382 134.965 12.4705 134.965 10.7252C134.965 8.97984 135.565 7.51217 136.767 6.32217C137.968 5.13217 139.43 4.53717 141.153 4.53717C142.875 4.53717 144.337 5.13217 145.539 6.32217C146.74 7.51217 147.341 8.97984 147.341 10.7252C147.341 12.4705 146.74 13.9382 145.539 15.1282ZM138.671 13.2752C139.339 13.9325 140.167 14.2612 141.153 14.2612C142.139 14.2612 142.96 13.9325 143.618 13.2752C144.286 12.6178 144.621 11.7678 144.621 10.7252C144.621 9.6825 144.286 8.8325 143.618 8.17517C142.96 7.51784 142.139 7.18917 141.153 7.18917C140.167 7.18917 139.339 7.51784 138.671 8.17517C138.013 8.8325 137.685 9.6825 137.685 10.7252C137.685 11.7678 138.013 12.6178 138.671 13.2752ZM161.063 4.77517V16.6752H158.343V9.75617L155.266 14.8052H154.96L151.883 9.75617V16.6752H149.163V4.77517H151.883L155.113 10.0622L158.343 4.77517H161.063ZM170.964 16.6752L170.369 14.8052H165.949L165.354 16.6752H162.379L166.425 4.77517H169.893L173.939 16.6752H170.964ZM166.765 12.2552H169.553L168.159 7.88617L166.765 12.2552ZM177.369 3.77217V1.56217H182.469V3.77217H177.369ZM181.874 16.6752V10.2152L177.284 16.6752H175.244V4.77517H177.964V11.2352L182.554 4.77517H184.594V16.6752H181.874ZM192.601 16.9132C190.822 16.9132 189.343 16.3238 188.164 15.1452C186.997 13.9552 186.413 12.4818 186.413 10.7252C186.413 8.9685 186.997 7.50084 188.164 6.32217C189.343 5.13217 190.822 4.53717 192.601 4.53717C193.666 4.53717 194.652 4.7865 195.559 5.28517C196.466 5.7725 197.18 6.44117 197.701 7.29117L195.355 8.65117C195.094 8.1865 194.72 7.8295 194.233 7.58017C193.746 7.3195 193.202 7.18917 192.601 7.18917C191.547 7.18917 190.703 7.51217 190.068 8.15817C189.445 8.80417 189.133 9.65984 189.133 10.7252C189.133 11.7905 189.445 12.6462 190.068 13.2922C190.703 13.9382 191.547 14.2612 192.601 14.2612C193.202 14.2612 193.746 14.1308 194.233 13.8702C194.732 13.6095 195.106 13.2525 195.355 12.7992L197.701 14.1592C197.191 15.0092 196.483 15.6835 195.576 16.1822C194.669 16.6695 193.678 16.9132 192.601 16.9132ZM208.889 16.6752H205.795L201.987 11.1672V16.6752H199.267V4.77517H201.987V9.94317L205.625 4.77517H208.719L204.707 10.5722L208.889 16.6752ZM218.096 16.6752L217.501 14.8052H213.081L212.486 16.6752H209.511L213.557 4.77517H217.025L221.071 16.6752H218.096ZM213.897 12.2552H216.685L215.291 7.88617L213.897 12.2552ZM231.127 4.77517V16.6752H228.407V12.7652H227.54L225.007 16.6752H221.947L224.735 12.4252C224.01 12.1192 223.42 11.6432 222.967 10.9972C222.514 10.3398 222.287 9.62584 222.287 8.85517C222.287 7.72184 222.684 6.7585 223.477 5.96517C224.27 5.17184 225.234 4.77517 226.367 4.77517H231.127ZM226.367 10.3852H228.407V7.32517H226.367C225.993 7.32517 225.67 7.4725 225.398 7.76717C225.137 8.06184 225.007 8.4245 225.007 8.85517C225.007 9.28584 225.137 9.6485 225.398 9.94317C225.67 10.2378 225.993 10.3852 226.367 10.3852Z" fill="#262525"/>
</svg>
